<svg width="319" height="87" viewBox="0 0 319 87" fill="none" xmlns="http://www.w3.org/2000/svg">
<path d="M7.875 71.25C6.6875 71.25 5.60938 71.0469 4.64062 70.6406C3.67188 70.2656 2.84375 69.75 2.15625 69.0938C1.46875 68.4062 0.9375 67.625 0.5625 66.75C0.1875 65.8438 0 64.875 0 63.8438C0 62.8438 0.1875 61.8906 0.5625 60.9844C0.9375 60.0781 1.46875 59.2969 2.15625 58.6406C2.84375 57.9531 3.67188 57.4219 4.64062 57.0469C5.60938 56.6406 6.70312 56.4375 7.92188 56.4375C9.14062 56.4375 10.2344 56.6406 11.2031 57.0469C12.1719 57.4219 13 57.9531 13.6875 58.6406C14.4062 59.2969 14.9531 60.0781 15.3281 60.9844C15.7031 61.8906 15.8906 62.8438 15.8906 63.8438C15.8906 64.875 15.7031 65.8438 15.3281 66.75C14.9531 67.625 14.4062 68.4062 13.6875 69.0938C13 69.75 12.1562 70.2656 11.1562 70.6406C10.1875 71.0469 9.09375 71.25 7.875 71.25ZM41.6794 71.4375C37.9294 71.4375 34.4919 70.7656 31.3669 69.4219C28.2731 68.0469 25.6012 66.1875 23.3512 63.8438C21.1012 61.5 19.3512 58.7656 18.1012 55.6406C16.8825 52.4844 16.2731 49.1406 16.2731 45.6094C16.2731 42.0781 16.8825 38.75 18.1012 35.625C19.3512 32.5 21.1012 29.7656 23.3512 27.4219C25.6012 25.0781 28.2731 23.2188 31.3669 21.8438C34.4919 20.4688 37.9294 19.7812 41.6794 19.7812C45.0231 19.7812 48.07 20.2969 50.82 21.3281C53.6012 22.3281 56.0544 23.7188 58.1794 25.5C60.3356 27.2812 62.1169 29.3906 63.5231 31.8281C64.9606 34.2344 65.9919 36.8438 66.6169 39.6562H51.9919C51.0856 37.3438 49.7106 35.6875 47.8669 34.6875C46.0544 33.6562 44.0075 33.1406 41.7262 33.1406C40.2887 33.1406 38.8981 33.4219 37.5544 33.9844C36.2106 34.5156 35.0231 35.3125 33.9919 36.375C32.9606 37.4062 32.1325 38.7031 31.5075 40.2656C30.8825 41.7969 30.57 43.5781 30.57 45.6094C30.57 47.6406 30.8825 49.4375 31.5075 51C32.1325 52.5625 32.9606 53.875 33.9919 54.9375C35.0231 56 36.2106 56.8125 37.5544 57.375C38.8981 57.9062 40.2887 58.1719 41.7262 58.1719C42.8512 58.1719 43.945 58.0469 45.0075 57.7969C46.07 57.5156 47.0387 57.0938 47.9137 56.5312C48.82 55.9375 49.6169 55.1719 50.3044 54.2344C50.9919 53.2656 51.5544 52.1094 51.9919 50.7656H66.6169C66.0544 53.7656 65.0544 56.5312 63.6169 59.0625C62.2106 61.5625 60.4294 63.7344 58.2731 65.5781C56.1481 67.4219 53.6794 68.8594 50.8669 69.8906C48.0856 70.9219 45.0231 71.4375 41.6794 71.4375ZM89.5931 71.4375C85.8119 71.4375 82.3275 70.7656 79.14 69.4219C75.9837 68.0469 73.265 66.2031 70.9837 63.8906C68.7337 61.5469 66.9681 58.8125 65.6869 55.6875C64.4369 52.5312 63.8119 49.1719 63.8119 45.6094C63.8119 42.0781 64.4369 38.75 65.6869 35.625C66.9681 32.4688 68.7337 29.7188 70.9837 27.375C73.265 25.0312 75.9837 23.1875 79.14 21.8438C82.3275 20.4688 85.8275 19.7812 89.64 19.7812C93.4837 19.7812 96.9994 20.4688 100.187 21.8438C103.374 23.1875 106.109 25.0312 108.39 27.375C110.702 29.7188 112.484 32.4531 113.734 35.5781C115.015 38.7031 115.656 42.0469 115.656 45.6094C115.656 49.1719 115.015 52.5312 113.734 55.6875C112.484 58.8125 110.702 61.5469 108.39 63.8906C106.109 66.2344 103.359 68.0781 100.14 69.4219C96.9525 70.7656 93.4369 71.4375 89.5931 71.4375ZM89.7337 58.125C91.4212 58.125 92.9681 57.8281 94.3744 57.2344C95.8119 56.6094 97.0462 55.75 98.0775 54.6562C99.1087 53.5312 99.9056 52.2031 100.468 50.6719C101.062 49.1406 101.359 47.4531 101.359 45.6094C101.359 43.7656 101.062 42.0781 100.468 40.5469C99.9056 39.0156 99.1087 37.7031 98.0775 36.6094C97.0462 35.4844 95.8119 34.625 94.3744 34.0312C92.9681 33.4062 91.4212 33.0938 89.7337 33.0938C88.0462 33.0938 86.4837 33.4062 85.0462 34.0312C83.64 34.625 82.4212 35.4844 81.39 36.6094C80.3587 37.7031 79.5462 39.0156 78.9525 40.5469C78.39 42.0781 78.1087 43.7656 78.1087 45.6094C78.1087 47.4531 78.39 49.1406 78.9525 50.6719C79.5462 52.2031 80.3587 53.5312 81.39 54.6562C82.4212 55.75 83.64 56.6094 85.0462 57.2344C86.4837 57.8281 88.0462 58.125 89.7337 58.125ZM136.663 71.4844C133.194 71.4844 130.038 70.8125 127.194 69.4688C124.351 68.0938 121.913 66.2344 119.882 63.8906C117.851 61.5469 116.272 58.8125 115.147 55.6875C114.054 52.5312 113.507 49.1719 113.507 45.6094C113.507 42.0781 114.054 38.75 115.147 35.625C116.241 32.4688 117.788 29.7188 119.788 27.375C121.819 25.0312 124.272 23.1875 127.147 21.8438C130.022 20.4688 133.241 19.7812 136.804 19.7812C138.522 19.7812 140.132 20.0156 141.632 20.4844C143.132 20.9219 144.491 21.5 145.71 22.2188C146.929 22.9062 147.991 23.6875 148.897 24.5625C149.835 25.4375 150.601 26.2969 151.194 27.1406L150.913 21.7969V3.84375H165.257V69.8906H151.569V63.75C150.913 64.6875 150.116 65.625 149.179 66.5625C148.241 67.4688 147.147 68.2969 145.897 69.0469C144.679 69.7656 143.304 70.3438 141.772 70.7812C140.241 71.25 138.538 71.4844 136.663 71.4844ZM139.335 58.2188C140.991 58.2188 142.522 57.9062 143.929 57.2812C145.335 56.625 146.569 55.7344 147.632 54.6094C148.694 53.4844 149.522 52.1562 150.116 50.625C150.71 49.0625 151.007 47.3906 151.007 45.6094C151.007 43.8594 150.71 42.2188 150.116 40.6875C149.522 39.1562 148.694 37.8281 147.632 36.7031C146.601 35.5781 145.366 34.6875 143.929 34.0312C142.522 33.375 140.991 33.0469 139.335 33.0469C137.679 33.0469 136.132 33.3594 134.694 33.9844C133.288 34.5781 132.069 35.4375 131.038 36.5625C130.007 37.6562 129.194 38.9688 128.601 40.5C128.007 42.0312 127.71 43.7344 127.71 45.6094C127.71 47.3906 127.976 49.0469 128.507 50.5781C129.069 52.1094 129.851 53.4531 130.851 54.6094C131.882 55.7344 133.116 56.625 134.554 57.2812C135.991 57.9062 137.585 58.2188 139.335 58.2188ZM188.374 71.4844C185.124 71.4844 182.124 70.8125 179.374 69.4688C176.655 68.0938 174.296 66.2344 172.296 63.8906C170.327 61.5469 168.78 58.8125 167.655 55.6875C166.561 52.5312 166.014 49.1719 166.014 45.6094C166.014 42.0781 166.577 38.75 167.702 35.625C168.827 32.4688 170.374 29.7188 172.342 27.375C174.342 25.0312 176.702 23.1875 179.421 21.8438C182.139 20.4688 185.092 19.7812 188.28 19.7812C191.874 19.7812 195.046 20.4531 197.796 21.7969C200.546 23.1406 202.671 25.0625 204.171 27.5625V21.3281H217.858V69.8906H204.124V63.75C202.624 66.2188 200.514 68.125 197.796 69.4688C195.077 70.8125 191.936 71.4844 188.374 71.4844ZM191.889 58.1719C193.546 58.1719 195.077 57.8594 196.483 57.2344C197.921 56.5781 199.155 55.6875 200.186 54.5625C201.249 53.4375 202.077 52.1094 202.671 50.5781C203.264 49.0469 203.561 47.3906 203.561 45.6094C203.561 43.8594 203.249 42.2188 202.624 40.6875C202.03 39.1562 201.202 37.8281 200.139 36.7031C199.108 35.5781 197.889 34.6875 196.483 34.0312C195.077 33.375 193.561 33.0469 191.936 33.0469C190.342 33.0469 188.842 33.3438 187.436 33.9375C186.03 34.5 184.796 35.3281 183.733 36.4219C182.671 37.4844 181.827 38.7969 181.202 40.3594C180.608 41.8906 180.311 43.6406 180.311 45.6094C180.311 47.6719 180.624 49.4844 181.249 51.0469C181.874 52.6094 182.717 53.9219 183.78 54.9844C184.842 56.0469 186.077 56.8438 187.483 57.375C188.889 57.9062 190.358 58.1719 191.889 58.1719ZM221.334 21.3281H235.163V28.1719C236.256 26.1406 237.725 24.5 239.569 23.25C241.444 21.9688 243.803 21.3281 246.647 21.3281H252.272V33.6094H247.444C243.788 33.6094 240.928 34.7969 238.866 37.1719C236.834 39.5469 235.819 43 235.819 47.5312V69.8906H221.334V21.3281ZM258.607 15.6094C257.264 15.6094 256.061 15.4063 254.998 15C253.967 14.5937 253.076 14.0469 252.326 13.3594C251.607 12.6406 251.061 11.8125 250.686 10.875C250.311 9.90625 250.123 8.89063 250.123 7.82812C250.123 6.76562 250.311 5.76562 250.686 4.82812C251.061 3.85937 251.607 3.03125 252.326 2.34375C253.045 1.625 253.936 1.0625 254.998 0.65625C256.061 0.21875 257.279 0 258.654 0C260.061 0 261.295 0.21875 262.357 0.65625C263.42 1.0625 264.311 1.625 265.029 2.34375C265.779 3.03125 266.342 3.85937 266.717 4.82812C267.092 5.76562 267.279 6.76562 267.279 7.82812C267.279 8.92187 267.092 9.9375 266.717 10.875C266.342 11.8125 265.779 12.6406 265.029 13.3594C264.311 14.0469 263.404 14.5937 262.311 15C261.248 15.4063 260.014 15.6094 258.607 15.6094ZM251.436 21.3281H265.873V69.8906H251.436V21.3281ZM303.896 69.3281L304.224 64.0781C303.693 64.9219 302.99 65.7969 302.115 66.7031C301.24 67.5781 300.193 68.375 298.974 69.0938C297.787 69.7812 296.427 70.3438 294.896 70.7812C293.365 71.25 291.662 71.4844 289.787 71.4844C286.318 71.4844 283.162 70.8125 280.318 69.4688C277.474 68.0938 275.037 66.2344 273.006 63.8906C270.974 61.5469 269.396 58.8125 268.271 55.6875C267.177 52.5312 266.631 49.1719 266.631 45.6094C266.631 42.0781 267.177 38.75 268.271 35.625C269.365 32.4688 270.912 29.7188 272.912 27.375C274.943 25.0312 277.396 23.1875 280.271 21.8438C283.146 20.4688 286.365 19.7812 289.927 19.7812C291.646 19.7812 293.256 20.0156 294.756 20.4844C296.256 20.9219 297.631 21.5 298.881 22.2188C300.131 22.9375 301.24 23.75 302.209 24.6562C303.177 25.5625 304.006 26.4844 304.693 27.4219V21.3281H318.381V86.4844H303.896V69.3281ZM292.459 58.2188C294.115 58.2188 295.646 57.9062 297.052 57.2812C298.459 56.625 299.693 55.7344 300.756 54.6094C301.818 53.4844 302.646 52.1562 303.24 50.625C303.834 49.0625 304.131 47.3906 304.131 45.6094C304.131 43.8594 303.834 42.2188 303.24 40.6875C302.646 39.1562 301.818 37.8281 300.756 36.7031C299.724 35.5781 298.49 34.6875 297.052 34.0312C295.646 33.375 294.115 33.0469 292.459 33.0469C290.802 33.0469 289.256 33.3594 287.818 33.9844C286.412 34.5781 285.193 35.4375 284.162 36.5625C283.131 37.6562 282.318 38.9688 281.724 40.5C281.131 42.0312 280.834 43.7344 280.834 45.6094C280.834 47.3906 281.099 49.0469 281.631 50.5781C282.193 52.1094 282.974 53.4531 283.974 54.6094C285.006 55.7344 286.24 56.625 287.677 57.2812C289.115 57.9062 290.709 58.2188 292.459 58.2188Z" fill="black"/>
</svg>
