<?xml version="1.0" standalone="no"?>
<!DOCTYPE svg PUBLIC "-//W3C//DTD SVG 20010904//EN"
 "http://www.w3.org/TR/2001/REC-SVG-20010904/DTD/svg10.dtd">
<svg version="1.0" xmlns="http://www.w3.org/2000/svg"
 width="500.000000pt" height="500.000000pt" viewBox="0 0 500.000000 500.000000"
 preserveAspectRatio="xMidYMid meet">
<metadata>
Created by potrace 1.15, written by Peter Selinger 2001-2017
</metadata>
<g transform="translate(0.000000,500.000000) scale(0.100000,-0.100000)"
fill="#000000" stroke="none">
<path d="M2848 4019 c-243 -33 -460 -114 -654 -242 -283 -188 -488 -444 -610
-764 l-24 -63 126 0 125 0 24 55 c108 243 325 473 580 613 218 121 450 178
685 169 219 -9 356 -45 575 -152 127 -63 250 -151 332 -237 l33 -34 -65 -64
-64 -64 -58 55 c-294 278 -689 382 -1068 280 -204 -54 -347 -135 -499 -281
-123 -119 -230 -290 -289 -462 -6 -17 -28 -18 -268 -18 l-263 0 -73 73 -73 73
0 125 0 124 47 35 c58 43 82 88 83 158 1 162 -171 254 -309 164 -47 -30 -91
-106 -91 -157 0 -73 48 -155 106 -182 l34 -17 0 -154 0 -155 117 -119 117
-118 268 0 269 0 -7 -67 c-3 -38 -7 -74 -10 -80 -3 -10 -106 -13 -474 -13
l-471 0 -45 43 -44 42 16 50 c50 161 -111 313 -264 250 -47 -20 -79 -50 -105
-100 -74 -141 54 -316 207 -283 39 9 39 9 110 -67 l71 -75 508 0 507 0 0 -38
c0 -100 84 -329 165 -452 65 -98 221 -254 315 -315 197 -127 409 -189 640
-188 109 1 153 6 231 26 196 51 359 141 503 278 l76 72 70 -74 c39 -40 70 -76
70 -79 0 -9 -120 -113 -190 -165 -99 -73 -306 -170 -430 -201 -207 -51 -415
-56 -610 -14 -126 27 -176 44 -295 100 -342 160 -612 479 -703 830 l-19 75
-292 3 -291 2 -76 -72 -76 -72 -63 -1 c-54 0 -71 -5 -107 -30 -121 -84 -120
-269 1 -347 42 -27 52 -29 118 -26 62 3 76 7 110 34 56 45 83 98 83 164 0 30
-7 68 -15 84 -16 29 -15 30 32 78 l47 48 156 0 157 0 27 -80 c45 -134 79 -211
138 -310 223 -379 604 -641 1063 -732 146 -29 406 -31 540 -4 304 60 577 197
803 403 84 76 215 229 210 244 -5 14 -479 489 -488 489 -5 0 -16 -13 -24 -29
-26 -49 -125 -164 -194 -224 -170 -148 -351 -217 -573 -217 -252 0 -450 81
-624 255 -170 171 -255 375 -255 615 0 287 128 531 375 715 67 49 217 116 322
142 98 24 274 22 376 -6 227 -60 434 -209 552 -395 39 -60 51 -73 64 -66 9 5
124 117 255 249 l239 240 -28 38 c-51 67 -208 223 -290 287 -134 105 -343 214
-505 265 -130 40 -280 62 -455 66 -99 2 -210 0 -247 -6z m-1548 -569 c29 -29
26 -74 -6 -99 -33 -26 -55 -26 -85 -3 -28 23 -30 73 -4 102 23 26 69 26 95 0z
m-522 -697 c32 -27 37 -64 12 -96 -41 -51 -120 -23 -120 43 0 59 64 90 108 53z
m265 -845 c18 -24 18 -30 7 -58 -32 -78 -130 -60 -130 24 0 66 82 89 123 34z"/>
</g>
</svg>
